<svg width="359" height="416" viewBox="0 0 359 416" fill="none" xmlns="http://www.w3.org/2000/svg">
<g opacity="0.15">
<path d="M165.113 193.399H264.975V269H357.675C358.556 260.518 359 251.999 359 243.472C358.996 187.536 339.712 133.304 304.389 89.881C269.063 46.4578 219.846 16.4868 165 5L165.113 193.399Z" fill="white"/>
<path d="M63.749 194V94.089H140V1.28254C131.706 0.452944 123.302 0 114.755 0C58.999 0.0066766 4.941 19.289 -38.3487 54.612C-81.6384 89.9352 -111.527 139.15 -123 194H63.749Z" fill="white"/>
<path d="M166.386 291V391.433H90V484.546C98.785 485.509 107.612 485.994 116.45 486C172.153 486 226.162 466.622 269.414 431.119C312.668 395.611 342.534 346.139 354 291H166.386Z" fill="white"/>
<path d="M65 292.701H-33.8831V217H-126.693C-127.57 225.486 -128.006 234.01 -128 242.541C-127.996 298.322 -108.837 352.419 -73.717 395.81C-38.597 439.201 10.362 469.267 65 481V292.701Z" fill="white"/>
</g>
</svg>
